<svg width="380" height="381" viewBox="0 0 380 381" fill="none" xmlns="http://www.w3.org/2000/svg">
<path d="M190.098 290.194C134.958 290.194 90.0977 245.334 90.0977 190.194C90.0977 135.054 134.958 90.1943 190.098 90.1943C245.238 90.1943 290.098 135.054 290.098 190.194C290.098 245.334 245.238 290.194 190.098 290.194ZM190.098 110.194C145.985 110.194 110.098 146.082 110.098 190.194C110.098 234.307 145.985 270.194 190.098 270.194C234.21 270.194 270.098 234.307 270.098 190.194C270.098 146.082 234.21 110.194 190.098 110.194Z" fill="white"/>
<path d="M190 74.0967C184.477 74.0967 180 69.6196 180 64.0967V10.0967C180 4.57373 184.477 0.0966797 190 0.0966797C195.523 0.0966797 200 4.57373 200 10.0967V64.0967C200 69.6196 195.523 74.0967 190 74.0967Z" fill="white"/>
<path d="M190 380.097C184.477 380.097 180 375.62 180 370.097V316.097C180 310.574 184.477 306.097 190 306.097C195.523 306.097 200 310.574 200 316.097V370.097C200 375.62 195.523 380.097 190 380.097Z" fill="white"/>
<path d="M64 200.097H10C4.47705 200.097 0 195.62 0 190.097C0 184.574 4.47705 180.097 10 180.097H64C69.5229 180.097 74 184.574 74 190.097C74 195.62 69.5229 200.097 64 200.097Z" fill="white"/>
<path d="M370 200.097H316C310.477 200.097 306 195.62 306 190.097C306 184.574 310.477 180.097 316 180.097H370C375.523 180.097 380 184.574 380 190.097C380 195.62 375.523 200.097 370 200.097Z" fill="white"/>
<path d="M278.542 111.555C275.983 111.555 273.423 110.579 271.471 108.626C267.566 104.721 267.566 98.3887 271.471 94.4834L310.208 55.7461C314.113 51.8408 320.445 51.8408 324.35 55.7461C328.255 59.6514 328.255 65.9834 324.35 69.8887L285.613 108.626C283.661 110.579 281.101 111.555 278.542 111.555Z" fill="white"/>
<path d="M62.7206 327.376C60.1615 327.376 57.6019 326.4 55.6493 324.447C51.7445 320.542 51.7445 314.21 55.6493 310.305L94.3866 271.567C98.2919 267.662 104.624 267.662 108.529 271.567C112.434 275.473 112.434 281.805 108.529 285.71L69.7919 324.447C67.8392 326.4 65.2797 327.376 62.7206 327.376Z" fill="white"/>
<path d="M101.458 111.555C98.8988 111.555 96.3392 110.579 94.3866 108.626L55.6493 69.8887C51.7445 65.9834 51.7445 59.6514 55.6493 55.7461C59.5546 51.8408 65.8866 51.8408 69.7919 55.7461L108.529 94.4834C112.434 98.3887 112.434 104.721 108.529 108.626C106.577 110.579 104.017 111.555 101.458 111.555Z" fill="white"/>
<path d="M317.279 327.376C314.72 327.376 312.161 326.4 310.208 324.447L271.471 285.71C267.566 281.805 267.566 275.473 271.471 271.567C275.376 267.662 281.708 267.662 285.613 271.567L324.35 310.305C328.255 314.21 328.255 320.542 324.35 324.447C322.398 326.4 319.838 327.376 317.279 327.376Z" fill="white"/>
</svg>
