<svg width="221" height="241" viewBox="0 0 221 241" fill="none" xmlns="http://www.w3.org/2000/svg">
<path d="M120.912 240.194C54.7441 240.194 0.912109 186.362 0.912109 120.194C0.912109 54.0264 54.7441 0.194336 120.912 0.194336C124.118 0.194336 127.402 0.328127 130.673 0.591797C134.25 0.880857 137.397 3.06347 138.922 6.31152C140.446 9.55957 140.113 13.376 138.05 16.3115C126.184 33.1875 119.912 53.0498 119.912 73.75C119.912 99.041 129.375 123.176 146.557 141.71C163.646 160.146 186.803 171.406 211.759 173.418C215.335 173.706 218.483 175.889 220.008 179.138C221.532 182.386 221.199 186.202 219.136 189.138C196.657 221.107 159.938 240.194 120.912 240.194ZM112.313 20.5605C61.1846 24.9375 20.9121 67.9521 20.9121 120.194C20.9121 175.335 65.772 220.194 120.912 220.194C147.803 220.194 173.38 209.318 192.024 190.486C169.089 185.03 148.188 172.888 131.89 155.308C111.269 133.063 99.9121 104.1 99.9121 73.75C99.9121 55.0918 104.16 36.998 112.313 20.5605Z" fill="white"/>
</svg>
