<svg width="444" height="363" viewBox="0 0 444 363" fill="none" xmlns="http://www.w3.org/2000/svg">
<path d="M69.9668 362.097C31.4951 361.843 0.25 330.438 0.25 292.09C0.25 258.766 23.2363 230.911 54.5293 223.828C54.0205 221.028 53.7646 218.171 53.7646 215.269C53.7646 189.016 75.123 167.658 101.375 167.658C110.096 167.658 118.453 169.985 125.745 174.346C145.727 147.923 176.558 132.449 210.205 132.449C262.793 132.449 307.121 171.187 314.986 222.233C351.385 224.685 380.25 255.081 380.25 292.09C380.25 330.312 349.154 361.715 310.932 362.091L69.9668 362.097ZM101.375 187.658C86.1504 187.658 73.7646 200.044 73.7646 215.269C73.7646 219.611 74.751 223.774 76.6953 227.643C78.2217 230.68 78.1016 234.285 76.375 237.213C74.6484 240.142 71.5518 241.992 68.1553 242.126C41.293 243.187 20.25 265.134 20.25 292.09C20.25 319.483 42.582 341.916 70.0322 342.097L310.833 342.092C338.037 341.823 360.25 319.393 360.25 292.09C360.25 264.511 337.812 242.073 310.233 242.073C309.206 242.073 308.089 242.118 306.719 242.213C304.074 242.396 301.444 241.516 299.441 239.764C297.438 238.011 296.216 235.533 296.046 232.877C293.152 187.777 255.446 152.449 210.205 152.449C179.866 152.449 152.347 167.958 136.591 193.935C134.996 196.565 132.279 198.314 129.226 198.679C126.171 199.042 123.12 197.982 120.95 195.801C115.729 190.55 108.776 187.658 101.375 187.658Z" fill="white"/>
<path d="M369.24 237.264C364.707 237.264 360.602 234.161 359.516 229.557C358.248 224.181 361.578 218.796 366.954 217.529C385.292 213.205 401.909 203.792 415.04 190.49C392.098 185.036 371.191 172.892 354.89 155.308C334.269 133.063 322.912 104.099 322.912 73.75C322.912 55.0918 327.161 36.9966 335.314 20.5586C312.31 22.5117 290.844 32.2832 274.134 48.564C255.392 66.8237 244.673 91.2607 243.951 117.374C243.798 122.895 239.213 127.284 233.679 127.093C228.158 126.941 223.807 122.342 223.959 116.821C224.825 85.478 237.687 56.1499 260.177 34.2388C282.709 12.2852 312.447 0.194824 343.912 0.194824C347.118 0.194824 350.402 0.328129 353.671 0.591309C357.248 0.878909 360.396 3.06152 361.922 6.31006C363.446 9.5586 363.113 13.375 361.05 16.3105C349.184 33.188 342.912 53.0498 342.912 73.75C342.912 99.041 352.375 123.176 369.557 141.71C386.647 160.146 409.803 171.407 434.759 173.418C438.335 173.707 441.483 175.889 443.008 179.137C444.532 182.386 444.199 186.202 442.136 189.137C425.172 213.265 400.102 230.261 371.544 236.995C370.772 237.177 370 237.264 369.24 237.264Z" fill="white"/>
</svg>
