<svg width="380" height="338" viewBox="0 0 380 338" fill="none" xmlns="http://www.w3.org/2000/svg">
<path d="M310.58 230.188L299.996 230.184L69.7168 230.097C31.2749 230.097 0 198.735 0 160.186C0 126.91 22.9863 99.0923 54.2788 92.0181C53.7705 89.2192 53.5146 86.3628 53.5146 83.4604C53.5146 57.2075 74.8726 35.8491 101.125 35.8491C109.846 35.8491 118.203 38.1753 125.495 42.5361C145.477 16.1113 176.309 0.634766 209.956 0.634766C262.541 0.634766 306.865 39.3633 314.734 90.4009C351.136 92.8491 380 123.235 380 160.234C380 198.431 348.904 229.812 310.682 230.187C310.648 230.188 310.614 230.188 310.58 230.188ZM300.003 210.184L310.535 210.188C337.815 209.893 360 187.494 360 160.234C360 132.668 337.562 110.242 309.983 110.242C308.805 110.242 307.545 110.318 306.468 110.393C303.816 110.58 301.194 109.696 299.191 107.944C297.188 106.191 295.966 103.713 295.795 101.057C292.903 55.9604 255.197 20.6348 209.956 20.6348C179.617 20.6348 152.098 36.145 136.342 62.124C134.747 64.7539 132.03 66.5034 128.976 66.8682C125.921 67.228 122.87 66.1714 120.701 63.9902C115.48 58.7402 108.528 55.8491 101.125 55.8491C85.9009 55.8491 73.5146 68.2354 73.5146 83.4604C73.5146 87.8042 74.5005 91.9673 76.4448 95.8345C77.9717 98.8716 77.8511 102.477 76.1245 105.405C74.3979 108.333 71.3018 110.184 67.9048 110.318C41.0425 111.379 20 133.284 20 160.186C20 187.707 42.3027 210.097 69.7168 210.097H80L300.003 210.184Z" fill="white"/>
<path d="M154.958 337.036C152.397 337.036 149.836 336.059 147.883 334.104C143.98 330.196 143.983 323.864 147.891 319.962L172.933 294.945C176.84 291.042 183.172 291.045 187.075 294.952C190.978 298.859 190.975 305.191 187.067 309.094L162.025 334.11C160.073 336.061 157.515 337.036 154.958 337.036Z" fill="white"/>
<path d="M67.958 280.036C65.397 280.036 62.8364 279.059 60.8833 277.104C56.98 273.196 56.9834 266.865 60.8906 262.962L76.6826 247.186C80.5898 243.282 86.9214 243.285 90.8247 247.192C94.728 251.1 94.7246 257.431 90.8174 261.334L75.0254 277.11C73.0732 279.061 70.5156 280.036 67.958 280.036Z" fill="white"/>
<path d="M206.958 280.036C204.397 280.036 201.836 279.059 199.883 277.104C195.98 273.196 195.983 266.865 199.891 262.962L215.683 247.186C219.59 243.282 225.921 243.285 229.825 247.192C233.728 251.1 233.725 257.431 229.817 261.334L214.025 277.11C212.073 279.061 209.516 280.036 206.958 280.036Z" fill="white"/>
<path d="M251.958 305.199C249.396 305.199 246.835 304.222 244.882 302.266C240.979 298.358 240.984 292.026 244.892 288.124L285.884 247.184C289.792 243.281 296.123 243.285 300.026 247.193C303.929 251.1 303.924 257.432 300.017 261.335L259.024 302.274C257.072 304.224 254.515 305.199 251.958 305.199Z" fill="white"/>
<path d="M100.958 316.199C98.397 316.199 95.8364 315.222 93.8833 313.267C89.98 309.359 89.9834 303.028 93.8906 299.125L145.883 247.186C149.79 243.282 156.122 243.285 160.025 247.192C163.928 251.1 163.925 257.431 160.018 261.334L108.025 313.273C106.073 315.224 103.515 316.199 100.958 316.199Z" fill="white"/>
</svg>
