<svg width="380" height="338" viewBox="0 0 380 338" fill="none" xmlns="http://www.w3.org/2000/svg">
<path d="M310.58 230.188L299.996 230.184C294.473 230.182 289.998 225.703 290 220.18C290.001 214.658 294.479 210.184 300 210.184C300.001 210.184 300.002 210.184 300.003 210.184L310.535 210.188C337.815 209.893 360 187.494 360 160.234C360 132.668 337.562 110.242 309.983 110.242C308.805 110.242 307.545 110.318 306.468 110.393C303.814 110.58 301.194 109.696 299.191 107.944C297.188 106.191 295.966 103.713 295.795 101.057C292.903 55.9604 255.197 20.6348 209.956 20.6348C179.617 20.6348 152.098 36.145 136.342 62.124C134.747 64.7539 132.03 66.5034 128.976 66.8682C125.923 67.228 122.87 66.1714 120.701 63.9902C115.48 58.7402 108.528 55.8491 101.125 55.8491C85.9009 55.8491 73.5146 68.2354 73.5146 83.4604C73.5146 87.8042 74.5005 91.9673 76.4449 95.8345C77.9717 98.8716 77.8511 102.477 76.1245 105.405C74.398 108.333 71.3018 110.184 67.9048 110.318C41.0425 111.379 20 133.284 20 160.186C20 187.707 42.3027 210.097 69.7168 210.097H80C85.5229 210.097 90 214.574 90 220.097C90 225.619 85.5229 230.097 80 230.097H69.7168C31.2749 230.097 0 198.735 0 160.186C0 126.91 22.9863 99.0923 54.2788 92.0181C53.7705 89.2192 53.5146 86.3628 53.5146 83.4604C53.5146 57.2075 74.8726 35.8491 101.125 35.8491C109.846 35.8491 118.203 38.1753 125.495 42.5361C145.477 16.1113 176.309 0.634766 209.956 0.634766C262.541 0.634766 306.865 39.3633 314.734 90.4009C351.136 92.8491 380 123.235 380 160.234C380 198.431 348.904 229.812 310.682 230.187C310.648 230.188 310.614 230.188 310.58 230.188Z" fill="white"/>
<path d="M96.0332 324.182C93.4761 324.182 90.9194 323.207 88.9673 321.258C85.0591 317.355 85.0547 311.023 88.957 307.115L131.915 264.097H106.033C101.941 264.097 98.2627 261.605 96.7456 257.804C95.229 254.004 96.1802 249.663 99.147 246.846L162.147 187.017C166.152 183.214 172.481 183.375 176.284 187.382C180.087 191.386 179.924 197.716 175.919 201.519L131.085 244.097H156.033C160.077 244.097 163.722 246.531 165.271 250.267C166.819 254.002 165.966 258.302 163.109 261.163L103.109 321.248C101.156 323.203 98.5947 324.182 96.0332 324.182Z" fill="white"/>
<path d="M197.958 289.036C195.397 289.036 192.836 288.059 190.883 286.104C186.98 282.196 186.983 275.865 190.891 271.962L233.799 229.097H207.958C203.871 229.097 200.195 226.609 198.675 222.815C197.155 219.022 198.097 214.684 201.054 211.862L264.054 151.741C268.05 147.929 274.379 148.076 278.192 152.072C282.005 156.067 281.857 162.397 277.862 166.21L232.921 209.097H257.958C262.003 209.097 265.65 211.534 267.198 215.273C268.745 219.01 267.888 223.313 265.025 226.171L205.025 286.11C203.073 288.061 200.516 289.036 197.958 289.036Z" fill="white"/>
<path d="M146.958 337.036C144.397 337.036 141.836 336.059 139.883 334.104C135.98 330.196 135.983 323.864 139.891 319.962L164.933 294.945C168.84 291.042 175.171 291.045 179.075 294.952C182.978 298.859 182.975 305.191 179.067 309.094L154.025 334.11C152.073 336.061 149.515 337.036 146.958 337.036Z" fill="white"/>
<path d="M55.958 304.036C53.397 304.036 50.8364 303.059 48.8833 301.104C44.98 297.196 44.9834 290.865 48.8906 286.962L64.6826 271.186C68.5898 267.283 74.9214 267.286 78.8247 271.192C82.728 275.1 82.7246 281.431 78.8174 285.334L63.0254 301.11C61.0732 303.061 58.5156 304.036 55.958 304.036Z" fill="white"/>
<path d="M234.958 318.036C232.397 318.036 229.836 317.059 227.883 315.104C223.98 311.196 223.983 304.865 227.891 300.962L279.883 249.022C283.79 245.119 290.122 245.122 294.025 249.029C297.928 252.937 297.925 259.268 294.018 263.171L242.025 315.11C240.073 317.061 237.515 318.036 234.958 318.036Z" fill="white"/>
</svg>
