<svg width="460" height="421" viewBox="0 0 460 421" fill="none" xmlns="http://www.w3.org/2000/svg">
<path d="M326.798 270.097C323.89 270.097 321.006 268.834 319.029 266.4C315.548 262.113 316.201 255.815 320.488 252.334C339.306 237.053 350.098 214.404 350.098 190.194C350.098 146.082 314.21 110.194 270.098 110.194C229.294 110.194 195.117 140.723 190.596 181.206C189.983 186.694 185.039 190.645 179.548 190.035C174.06 189.421 170.107 184.475 170.72 178.986C176.372 128.367 219.095 90.1943 270.098 90.1943C325.238 90.1943 370.098 135.054 370.098 190.194C370.098 220.456 356.611 248.764 333.096 267.859C331.242 269.365 329.013 270.097 326.798 270.097Z" fill="white"/>
<path d="M270 74.0967C264.478 74.0967 260 69.6196 260 64.0967V10.0967C260 4.57373 264.478 0.0966797 270 0.0966797C275.522 0.0966797 280 4.57373 280 10.0967V64.0967C280 69.6196 275.522 74.0967 270 74.0967Z" fill="white"/>
<path d="M144 200.097H90C84.477 200.097 80 195.62 80 190.097C80 184.574 84.477 180.097 90 180.097H144C149.523 180.097 154 184.574 154 190.097C154 195.62 149.523 200.097 144 200.097Z" fill="white"/>
<path d="M450 200.097H396C390.478 200.097 386 195.62 386 190.097C386 184.574 390.478 180.097 396 180.097H450C455.522 180.097 460 184.574 460 190.097C460 195.62 455.522 200.097 450 200.097Z" fill="white"/>
<path d="M358.542 111.555C355.982 111.555 353.424 110.579 351.471 108.626C347.565 104.721 347.565 98.3887 351.471 94.4834L390.208 55.7461C394.114 51.8408 400.444 51.8408 404.351 55.7461C408.256 59.6514 408.256 65.9834 404.351 69.8887L365.613 108.626C363.66 110.579 361.102 111.555 358.542 111.555Z" fill="white"/>
<path d="M181.458 111.555C178.899 111.555 176.339 110.579 174.387 108.626L135.649 69.8887C131.745 65.9834 131.745 59.6514 135.649 55.7461C139.555 51.8408 145.887 51.8408 149.792 55.7461L188.529 94.4834C192.434 98.3887 192.434 104.721 188.529 108.626C186.577 110.579 184.017 111.555 181.458 111.555Z" fill="white"/>
<path d="M397.279 327.376C394.72 327.376 392.161 326.4 390.208 324.447L351.471 285.71C347.565 281.805 347.565 275.473 351.471 271.567C355.377 267.662 361.707 267.662 365.613 271.567L404.351 310.305C408.256 314.21 408.256 320.542 404.351 324.447C402.397 326.4 399.839 327.376 397.279 327.376Z" fill="white"/>
<path d="M69.9668 420.097C31.4951 419.843 0.25 388.438 0.25 350.09C0.25 316.766 23.2368 288.911 54.5288 281.828C54.02 279.028 53.7646 276.172 53.7646 273.269C53.7646 247.016 75.1226 225.658 101.375 225.658C110.095 225.658 118.453 227.985 125.745 232.346C145.726 205.923 176.557 190.449 210.206 190.449C262.794 190.449 307.121 229.187 314.986 280.233C351.385 282.685 380.25 313.081 380.25 350.09C380.25 388.312 349.154 419.715 310.932 420.091L69.9668 420.097ZM101.375 245.658C86.1509 245.658 73.7646 258.044 73.7646 273.269C73.7646 277.612 74.7505 281.775 76.6948 285.643C78.2217 288.68 78.1011 292.285 76.3745 295.213C74.6479 298.142 71.5518 299.992 68.1548 300.126C41.2925 301.187 20.25 323.134 20.25 350.09C20.25 377.483 42.5825 399.916 70.0327 400.097L310.833 400.092C338.037 399.823 360.25 377.393 360.25 350.09C360.25 322.511 337.812 300.073 310.233 300.073C309.206 300.073 308.089 300.118 306.719 300.213C304.072 300.394 301.444 299.517 299.441 297.764C297.438 296.011 296.216 293.533 296.046 290.877C293.152 245.777 255.447 210.449 210.206 210.449C179.866 210.449 152.347 225.958 136.592 251.935C134.997 254.564 132.28 256.314 129.226 256.679C126.172 257.039 123.12 255.982 120.951 253.801C115.729 248.55 108.777 245.658 101.375 245.658Z" fill="white"/>
</svg>
