<svg width="380" height="231" viewBox="0 0 380 231" fill="none" xmlns="http://www.w3.org/2000/svg">
<path d="M69.7168 230.289C31.2451 230.036 0 198.631 0 160.283C0 126.958 22.9868 99.103 54.2788 92.02C53.77 89.2207 53.5146 86.3643 53.5146 83.4609C53.5146 57.2085 74.8726 35.8506 101.125 35.8506C109.845 35.8506 118.203 38.1777 125.495 42.5386C145.476 16.1157 176.307 0.641113 209.956 0.641113C262.544 0.641113 306.871 39.3794 314.736 90.4253C351.134 92.8774 380 123.273 380 160.283C380 198.505 348.904 229.907 310.682 230.284L69.7168 230.289ZM101.125 55.8506C85.9009 55.8506 73.5146 68.2363 73.5146 83.4609C73.5146 87.8042 74.5005 91.9678 76.4448 95.835C77.9717 98.8721 77.8511 102.477 76.1245 105.406C74.3979 108.334 71.3018 110.185 67.9048 110.319C41.0425 111.379 20 133.326 20 160.283C20 187.675 42.3325 210.108 69.7827 210.289L310.583 210.284C337.788 210.016 360 187.585 360 160.283C360 132.703 337.562 110.266 309.983 110.266C308.956 110.266 307.838 110.31 306.468 110.405C303.814 110.59 301.194 109.708 299.191 107.956C297.188 106.204 295.966 103.725 295.795 101.069C292.902 55.9692 255.197 20.6411 209.956 20.6411C179.616 20.6411 152.097 36.1499 136.342 62.127C134.747 64.7568 132.03 66.5063 128.976 66.8711C125.923 67.2314 122.87 66.1743 120.701 63.9932C115.479 58.7422 108.527 55.8506 101.125 55.8506Z" fill="white"/>
</svg>
