<svg width="416" height="472" viewBox="0 0 416 472" fill="none" xmlns="http://www.w3.org/2000/svg">
<path d="M301.532 232.597C299.017 232.597 296.506 231.604 294.638 229.635C291.027 225.829 291.186 219.816 294.992 216.205C309.482 202.459 317.463 183.895 317.463 163.93C317.463 124.208 285.147 91.8921 245.425 91.8921C210.536 91.8921 180.724 116.765 174.536 151.035C173.604 156.197 168.659 159.626 163.5 158.695C158.336 157.763 154.906 152.822 155.839 147.659C163.66 104.336 201.337 72.8921 245.425 72.8921C295.623 72.8921 336.463 113.731 336.463 163.93C336.463 189.16 326.379 212.62 308.068 229.989C306.232 231.732 303.879 232.597 301.532 232.597Z" fill="white"/>
<path d="M217.268 64.9243C212.898 64.9243 208.965 61.8916 207.996 57.4472L197.977 11.5273C196.858 6.40133 200.107 1.33932 205.233 0.22067C210.369 -0.89896 215.423 2.35202 216.54 7.47751L226.558 53.3974C227.678 58.5234 224.429 63.5854 219.303 64.7041C218.62 64.853 217.938 64.9243 217.268 64.9243Z" fill="white"/>
<path d="M356.9 153.702C352.53 153.702 348.597 150.669 347.628 146.225C346.509 141.099 349.758 136.037 354.884 134.918L403.734 124.26C408.871 123.141 413.924 126.392 415.041 131.517C416.16 136.643 412.911 141.705 407.785 142.824L358.934 153.481C358.252 153.63 357.57 153.702 356.9 153.702Z" fill="white"/>
<path d="M305.773 80.954C304.016 80.954 302.238 80.4676 300.65 79.4481C296.234 76.6141 294.952 70.7372 297.786 66.3216L324.595 24.5526C327.429 20.1371 333.305 18.8553 337.722 21.6888C342.137 24.5228 343.419 30.3998 340.585 34.8153L313.776 76.5843C311.962 79.4115 308.9 80.954 305.773 80.954Z" fill="white"/>
<path d="M149.025 115.151C147.269 115.151 145.491 114.665 143.903 113.645L102.134 86.8373C97.7178 84.0033 96.4356 78.1263 99.2696 73.7108C102.104 69.2953 107.981 68.0135 112.396 70.847L154.165 97.6551C158.581 100.489 159.863 106.366 157.029 110.782C155.215 113.609 152.152 115.151 149.025 115.151Z" fill="white"/>
<path d="M380.762 264.723C379.005 264.723 377.228 264.237 375.639 263.217L333.87 236.409C329.455 233.575 328.173 227.698 331.007 223.283C333.841 218.867 339.717 217.584 344.134 220.419L385.902 247.227C390.317 250.061 391.6 255.938 388.766 260.354C386.951 263.181 383.889 264.723 380.762 264.723Z" fill="white"/>
<path d="M64.1104 372.657C29.0117 372.426 0.507812 343.777 0.507812 308.792C0.507812 278.537 21.2783 253.223 49.6172 246.613C49.2002 244.184 48.9912 241.708 48.9912 239.194C48.9912 215.167 68.5381 195.62 92.5654 195.62C100.411 195.62 107.938 197.678 114.53 201.541C132.724 177.683 160.673 163.72 191.164 163.72C238.908 163.72 279.171 198.8 286.474 245.089C319.515 247.496 345.661 275.148 345.661 308.792C345.661 343.661 317.293 372.309 282.425 372.652L64.1104 372.657ZM92.5654 214.62C79.0156 214.62 67.9912 225.644 67.9912 239.194C67.9912 243.06 68.8682 246.765 70.5986 250.206C72.0498 253.091 71.9355 256.516 70.2949 259.298C68.6553 262.081 65.7139 263.839 62.4863 263.966C38.3857 264.918 19.5078 284.608 19.5078 308.792C19.5078 333.369 39.5449 353.495 64.1729 353.657L282.331 353.653C306.732 353.412 326.661 333.288 326.661 308.792C326.661 284.049 306.53 263.919 281.787 263.919C280.861 263.919 279.859 263.958 278.632 264.043C276.102 264.223 273.621 263.38 271.72 261.716C269.816 260.052 268.656 257.697 268.494 255.174C265.888 214.546 231.921 182.72 191.164 182.72C163.833 182.72 139.041 196.692 124.848 220.094C123.332 222.592 120.752 224.254 117.851 224.601C114.947 224.945 112.049 223.938 109.989 221.867C105.341 217.193 99.1523 214.62 92.5654 214.62Z" fill="white"/>
<path d="M147.452 471.918C145.02 471.918 142.587 470.99 140.731 469.133C137.023 465.421 137.026 459.406 140.738 455.698L163.426 433.033C167.138 429.326 173.152 429.328 176.86 433.039C180.568 436.751 180.565 442.766 176.854 446.474L154.166 469.139C152.312 470.992 149.882 471.918 147.452 471.918Z" fill="white"/>
<path d="M68.6318 420.278C66.1992 420.278 63.7666 419.349 61.9111 417.492C58.2031 413.78 58.2061 407.765 61.918 404.057L76.2256 389.764C79.9365 386.057 85.9512 386.059 89.6602 389.771C93.3682 393.483 93.3652 399.497 89.6533 403.206L75.3457 417.499C73.4912 419.351 71.0615 420.278 68.6318 420.278Z" fill="white"/>
<path d="M194.563 420.278C192.131 420.278 189.698 419.349 187.843 417.492C184.135 413.78 184.138 407.765 187.85 404.057L202.156 389.764C205.868 386.057 211.883 386.058 215.591 389.77C219.299 393.482 219.296 399.497 215.584 403.205L201.277 417.498C199.423 419.351 196.993 420.278 194.563 420.278Z" fill="white"/>
<path d="M235.333 443.075C232.899 443.075 230.467 442.146 228.611 440.289C224.903 436.576 224.907 430.561 228.62 426.854L265.758 389.763C269.47 386.055 275.484 386.06 279.192 389.771C282.9 393.484 282.896 399.499 279.183 403.207L242.046 440.297C240.191 442.149 237.763 443.075 235.333 443.075Z" fill="white"/>
<path d="M98.5293 453.041C96.0967 453.041 93.6641 452.112 91.8086 450.255C88.1006 446.543 88.1035 440.528 91.8154 436.82L138.919 389.764C142.631 386.056 148.646 386.059 152.354 389.77C156.062 393.482 156.059 399.497 152.347 403.205L105.243 450.262C103.389 452.115 100.959 453.041 98.5293 453.041Z" fill="white"/>
</svg>
