<svg width="411" height="439" viewBox="0 0 411 439" fill="none" xmlns="http://www.w3.org/2000/svg">
<path d="M65.0684 334.712C29.2168 334.476 0.102539 305.212 0.102539 269.479C0.102539 238.688 21.1641 212.908 49.9473 206.042C49.5566 203.657 49.3604 201.23 49.3604 198.768C49.3604 174.165 69.376 154.149 93.9785 154.149C101.908 154.149 109.518 156.202 116.205 160.058C134.758 135.881 163.168 121.741 194.152 121.741C242.736 121.741 283.723 157.371 291.285 204.43C324.902 207.023 351.465 235.207 351.465 269.479C351.465 305.095 322.489 334.355 286.874 334.707L65.0684 334.712ZM93.9785 174.149C80.4043 174.149 69.3604 185.193 69.3604 198.768C69.3604 202.64 70.2393 206.352 71.9727 209.801C73.5 212.838 73.3789 216.443 71.6523 219.371C69.9258 222.3 66.8291 224.15 63.4326 224.284C39.1357 225.244 20.1025 245.096 20.1025 269.479C20.1025 294.257 40.3037 314.548 65.1348 314.712L286.775 314.707C311.373 314.465 331.465 294.175 331.465 269.479C331.465 244.531 311.169 224.236 286.223 224.236C285.295 224.236 284.284 224.276 283.042 224.362C280.377 224.548 277.768 223.665 275.766 221.913C273.763 220.161 272.541 217.682 272.37 215.026C269.733 173.932 235.376 141.741 194.152 141.741C166.507 141.741 141.431 155.873 127.073 179.544C125.479 182.174 122.762 183.923 119.708 184.288C116.655 184.649 113.603 183.591 111.433 181.41C106.777 176.728 100.578 174.149 93.9785 174.149Z" fill="white"/>
<path d="M347.247 217.981C342.98 217.981 339.029 215.23 337.699 210.941C336.063 205.666 339.013 200.063 344.287 198.427C358.106 194.141 370.771 186.51 381.105 176.391C360.387 171.179 341.522 160.06 326.743 144.117C307.626 123.496 297.098 96.6431 297.098 68.5068C297.098 51.6909 300.82 35.3696 307.972 20.4722C288.222 22.4663 269.691 30.8188 255.023 44.4897C238.168 60.1997 227.941 81.4561 226.23 104.343C225.818 109.851 221.006 113.99 215.512 113.569C210.005 113.157 205.874 108.359 206.286 102.851C208.374 74.9321 220.84 49.0098 241.387 29.8589C262.041 10.6089 288.974 0.00732422 317.223 0.00732422C320.199 0.00732422 323.243 0.13086 326.271 0.375C329.847 0.66357 332.995 2.84619 334.52 6.09424C336.044 9.34278 335.711 13.1587 333.647 16.0942C322.82 31.4936 317.098 49.6177 317.098 68.5068C317.098 91.5845 325.732 113.608 341.41 130.521C357.005 147.343 378.135 157.618 400.906 159.453C404.482 159.742 407.631 161.924 409.155 165.172C410.68 168.421 410.347 172.237 408.283 175.172C394.167 195.25 373.544 210.293 350.213 217.53C349.227 217.835 348.228 217.981 347.247 217.981Z" fill="white"/>
<path d="M155.266 438.224C152.704 438.224 150.144 437.246 148.191 435.291C144.288 431.384 144.291 425.052 148.198 421.149L171.248 398.123C175.155 394.22 181.488 394.223 185.39 398.13C189.293 402.037 189.29 408.369 185.383 412.271L162.333 435.298C160.381 437.248 157.823 438.224 155.266 438.224Z" fill="white"/>
<path d="M75.1857 385.758C72.6241 385.758 70.0636 384.78 68.1105 382.825C64.2081 378.918 64.2111 372.586 68.1183 368.683L82.6544 354.162C86.5616 350.259 92.8937 350.263 96.797 354.17C100.699 358.077 100.696 364.409 96.7892 368.312L82.253 382.833C80.3009 384.783 77.7433 385.758 75.1857 385.758Z" fill="white"/>
<path d="M203.129 385.758C200.567 385.758 198.008 384.78 196.055 382.825C192.151 378.918 192.154 372.587 196.062 368.684L210.597 354.163C214.504 350.26 220.835 350.263 224.738 354.17C228.642 358.077 228.639 364.408 224.731 368.312L210.196 382.832C208.244 384.782 205.687 385.758 203.129 385.758Z" fill="white"/>
<path d="M244.549 408.92C241.987 408.92 239.426 407.942 237.474 405.986C233.57 402.079 233.574 395.747 237.482 391.845L275.214 354.162C279.122 350.258 285.455 350.263 289.355 354.171C293.259 358.078 293.255 364.41 289.347 368.313L251.615 405.995C249.663 407.945 247.105 408.92 244.549 408.92Z" fill="white"/>
<path d="M105.561 419.045C102.999 419.045 100.438 418.067 98.4863 416.112C94.583 412.205 94.5859 405.873 98.4932 401.971L146.35 354.163C150.257 350.26 156.59 350.263 160.491 354.17C164.395 358.077 164.392 364.409 160.484 368.312L112.628 416.119C110.676 418.069 108.118 419.045 105.561 419.045Z" fill="white"/>
</svg>
