<svg width="380" height="385" viewBox="0 0 380 385" fill="none" xmlns="http://www.w3.org/2000/svg">
<path d="M310.579 230.188L299.995 230.184L69.7168 230.097C31.2749 230.097 0 198.735 0 160.186C0 126.91 22.9863 99.0923 54.2788 92.0181C53.7705 89.2192 53.5146 86.3628 53.5146 83.4604C53.5146 57.2075 74.8726 35.8491 101.125 35.8491C109.846 35.8491 118.203 38.1753 125.495 42.5361C145.477 16.1113 176.309 0.634766 209.956 0.634766C262.54 0.634766 306.865 39.3633 314.734 90.4009C351.137 92.8491 380 123.235 380 160.234C380 198.431 348.903 229.812 310.682 230.187C310.647 230.188 310.613 230.188 310.579 230.188ZM300.003 210.184L310.534 210.188C337.814 209.893 360 187.494 360 160.234C360 132.668 337.562 110.242 309.983 110.242C308.805 110.242 307.545 110.318 306.469 110.393C303.826 110.575 301.195 109.696 299.191 107.944C297.188 106.191 295.966 103.713 295.796 101.057C292.902 55.9604 255.197 20.6348 209.956 20.6348C179.617 20.6348 152.098 36.145 136.342 62.124C134.747 64.7539 132.03 66.5034 128.976 66.8682C125.924 67.2305 122.87 66.1714 120.701 63.9902C115.48 58.7402 108.528 55.8491 101.125 55.8491C85.9009 55.8491 73.5146 68.2354 73.5146 83.4604C73.5146 87.8042 74.5005 91.9673 76.4448 95.8345C77.9717 98.8716 77.8511 102.477 76.1245 105.405C74.3979 108.333 71.3018 110.184 67.9048 110.318C41.0425 111.379 20 133.284 20 160.186C20 187.707 42.3027 210.097 69.7168 210.097H80L300.003 210.184Z" fill="white"/>
<path d="M94.0024 365.15C91.4414 365.15 88.8809 364.173 86.9277 362.218C83.0244 358.31 83.0278 351.979 86.9351 348.076L148.838 286.235C152.746 282.333 159.077 282.335 162.98 286.242C166.884 290.149 166.88 296.48 162.973 300.384L101.07 362.224C99.1177 364.175 96.5601 365.15 94.0024 365.15Z" fill="white"/>
<path d="M155.875 365.182C153.313 365.182 150.753 364.204 148.8 362.249L86.959 300.346C83.0557 296.438 83.0591 290.107 86.9663 286.204C90.874 282.302 97.2056 282.304 101.108 286.211L162.949 348.114C166.853 352.021 166.849 358.352 162.942 362.256C160.99 364.206 158.432 365.182 155.875 365.182Z" fill="white"/>
<path d="M174.954 334.097C174.952 334.097 174.951 334.097 174.949 334.097L74.9492 334.126C69.4263 334.123 64.9512 329.629 64.9541 324.106C64.957 318.585 69.4336 314.097 74.9541 314.097C74.9556 314.097 74.9575 314.097 74.959 314.097L174.959 314.201C180.482 314.204 184.957 318.631 184.954 324.154C184.951 329.674 180.474 334.097 174.954 334.097Z" fill="white"/>
<path d="M124.929 384.097C124.927 384.097 124.926 384.097 124.924 384.097C119.401 384.097 114.926 379.681 114.929 374.158L114.979 274.125C114.982 268.604 119.459 264.097 124.979 264.097C124.981 264.097 124.982 264.097 124.984 264.097C130.507 264.097 134.982 268.646 134.979 274.168L134.929 374.135C134.926 379.656 130.449 384.097 124.929 384.097Z" fill="white"/>
<path d="M232.711 320.831C229.266 320.831 225.914 319.05 224.058 315.857C221.28 311.084 222.898 304.963 227.673 302.186L288.179 266.986C292.953 264.205 299.074 265.827 301.851 270.602C304.628 275.375 303.01 281.496 298.235 284.273L237.729 319.473C236.147 320.394 234.418 320.831 232.711 320.831Z" fill="white"/>
<path d="M293.707 319.927C292.096 319.927 290.462 319.536 288.945 318.714L227.422 285.323C222.569 282.688 220.769 276.618 223.403 271.764C226.037 266.91 232.107 265.111 236.963 267.745L298.486 301.136C303.34 303.77 305.14 309.841 302.505 314.695C300.694 318.033 297.256 319.927 293.707 319.927Z" fill="white"/>
<path d="M262.937 338.097C262.935 338.097 262.934 338.097 262.932 338.097C257.408 338.097 252.934 333.387 252.937 327.864L252.972 259.066C252.975 253.545 257.451 249.097 262.972 249.097C262.974 249.097 262.975 249.097 262.977 249.097C268.5 249.097 272.975 253.44 272.972 258.962L272.937 327.944C272.934 333.465 268.457 338.097 262.937 338.097Z" fill="white"/>
</svg>
