<svg width="380" height="316" viewBox="0 0 380 316" fill="none" xmlns="http://www.w3.org/2000/svg">
<path d="M310.58 230.188L299.996 230.184L69.7168 230.097C31.2749 230.097 0 198.735 0 160.187C0 126.91 22.9863 99.0928 54.2788 92.0186C53.77 89.2197 53.5146 86.3623 53.5146 83.46C53.5146 57.207 74.8726 35.8496 101.125 35.8496C109.846 35.8496 118.204 38.1758 125.495 42.5361C145.477 16.1113 176.309 0.634766 209.956 0.634766C262.541 0.634766 306.865 39.3633 314.734 90.4014C351.136 92.8496 380 123.235 380 160.234C380 198.431 348.904 229.812 310.682 230.187C310.648 230.188 310.614 230.188 310.58 230.188ZM300.003 210.184L310.535 210.188C337.815 209.893 360 187.494 360 160.234C360 132.669 337.562 110.242 309.983 110.242C308.798 110.242 307.542 110.318 306.468 110.393C303.816 110.586 301.194 109.696 299.191 107.943C297.188 106.191 295.966 103.713 295.795 101.058C292.903 55.9609 255.197 20.6348 209.956 20.6348C179.617 20.6348 152.098 36.1445 136.342 62.124C134.747 64.7539 132.03 66.5039 128.976 66.8682C125.922 67.2285 122.87 66.1709 120.701 63.9902C115.48 58.7402 108.528 55.8496 101.125 55.8496C85.9009 55.8496 73.5146 68.2354 73.5146 83.46C73.5146 87.8047 74.5005 91.9678 76.4443 95.834C77.9717 98.8711 77.8511 102.477 76.1245 105.405C74.3979 108.333 71.3018 110.185 67.9048 110.318C41.0425 111.379 20 133.284 20 160.187C20 187.707 42.3027 210.097 69.7168 210.097H80L300.003 210.184Z" fill="white"/>
<path d="M287.625 315.097C287.623 315.097 287.621 315.097 287.618 315.097L231.243 315.073C225.721 315.069 221.247 310.601 221.25 305.078C221.253 299.557 225.73 295.097 231.25 295.097C231.252 295.097 231.254 295.097 231.257 295.097L287.632 295.128C293.154 295.132 297.628 299.596 297.625 305.119C297.622 310.64 293.145 315.097 287.625 315.097Z" fill="white"/>
<path d="M192.25 315.097C192.249 315.097 192.248 315.097 192.246 315.097L92.8301 315.073C87.3076 315.071 82.832 310.604 82.834 305.081C82.8359 299.559 87.313 295.097 92.834 295.097C92.8354 295.097 92.8364 295.097 92.8379 295.097L192.254 295.128C197.776 295.13 202.252 299.593 202.25 305.116C202.248 310.638 197.771 315.097 192.25 315.097Z" fill="white"/>
<path d="M310.875 273.097C310.874 273.097 310.873 273.097 310.872 273.097L181.331 273.073C175.808 273.071 171.333 268.604 171.334 263.082C171.335 257.56 175.813 253.097 181.334 253.097C181.335 253.097 181.336 253.097 181.337 253.097L310.878 253.128C316.401 253.13 320.876 257.593 320.875 263.115C320.874 268.637 316.396 273.097 310.875 273.097Z" fill="white"/>
<path d="M143.875 273.097C143.873 273.097 143.872 273.097 143.87 273.097L72.3286 273.073C66.8062 273.07 62.3311 268.602 62.334 263.08C62.3369 257.558 66.814 253.097 72.334 253.097C72.3359 253.097 72.3369 253.097 72.3394 253.097L143.88 253.128C149.403 253.131 153.878 257.595 153.875 263.117C153.872 268.639 149.395 273.097 143.875 273.097Z" fill="white"/>
</svg>
